<svg xmlns="http://www.w3.org/2000/svg" width="489" height="489"><path fill="#36426c" d="M284 46.6h15.3l28.3-.1h8.9c5 0 8.6 1.4 12.5 4.5 2.2 3 2.3 5.7 2.3 9.4v10.4l.2 11.5.2 18.6c.1 13.5.1 13.5 4.3 18.5 3.1 2.5 5 2.7 9 2.8l3 .1 21.8.4c13.7.3 25.6.3 37.7-6.9 5.5-3.2 11.4-2.8 17.5-1.8 8 2.2 14.2 6 18.9 13 4.4 8 5.5 17 3.4 25.9a34 34 0 0 1-15 20.1 49 49 0 0 1-21.5 3.3h-6.2l-28.3.1h-4.1c-14 0-14 0-19.2 4.6-5.4 5.6-4.6 14.2-4.5 21.4v6.3c0 7 0 13.6 4.5 19.3 4 3.6 8.2 5.1 13.6 5.2h8.9l6.6.1 10 .1h9.4a42 42 0 0 0 17-3.5q5.2-1.8 10.4-1.5h2c9 .4 16.1 4 22.2 10.5A34 34 0 0 1 480 264a31 31 0 0 1-13.5 21.4A32 32 0 0 1 445 290l-5.6-1.5a70 70 0 0 0-18.7-1.9h-31.3c-7 0-12.1.7-17.7 5.3-3.6 4.5-4 9-4 14.5v6.6l-.1 6.8c-.2 14.7-.2 14.7 4.4 20.2a22 22 0 0 0 15.4 4.6h14.8a42 42 0 0 0 22.7-4.4 33 33 0 0 1 22.8-1.4q3.2 1.4 6.3 3.2l1.7.8c5.7 3.2 9.6 9.5 11.7 15.5 2.2 10 .8 20-4.7 28.8A29 29 0 0 1 445 398l-7 .1h-1.8q-3.7.2-7.3-.6-6.4-.9-12.8-.7h-32.2l-34.4-.2h-16.2l-2.8-.1c-6.9 0-12.2 1.6-17.4 6.2-2 4.2-2.3 8.8-2.8 13.4a29 29 0 0 1-11.2 20.4A35 35 0 0 1 275 442a30 30 0 0 1-19.6-11 26 26 0 0 1-4.6-15.5v-10.8l-.1-11.8-.1-21.6v-10.8l-.1-1.8c0-3 .2-4.4 2.4-6.6a15 15 0 0 1 7.5-1.6l3.1-.1h3.3l3.2-.2 8-.2v-4h-1.9l-26.7-.3-10.5-.2h-3.2c-8.8-.2-15.6-1.7-22.2-7.8a30 30 0 0 1-6.8-21.8c.7-7 3-12.2 8.3-16.9a19 19 0 0 1 13.5-5.3H239l25.2-.2h3.6c15.4 0 15.4 0 20.7-5 5.9-6.4 5.7-13.5 5.7-21.8V261c.1-16.3.1-16.3-5.6-22.3-6.8-4-12.8-3.9-20.5-3.8l-25.4-.1H236a30 30 0 0 1-23-9.5q-7-8.7-6.4-20c1-7.2 3.5-13.6 9.3-18.2 6.2-4.2 11.9-4.6 19.2-4.5h36.4c6.5 0 12.1-.4 17.4-4.5a26 26 0 0 0 5.2-17.5V140c0-5.1-.4-10.2-3.3-14.6a20 20 0 0 0-15-5.6l-3.4-.1-5.4-.1-5.2-.2h-3.1c-2.8-.3-4.5-.8-6.8-2.3-1.2-2.4-1.1-4-1.2-6.8V93.5l-.1-9V72.6c0-8 1.1-15.2 6.8-21.4 7.2-6 17.7-4.7 26.4-4.6"/><path fill="#fd634b" d="m198 50 2.1.8a49 49 0 0 1 23.7 25 46 46 0 0 1 2.5 17.9l.3 9.1.1 6.7v2q.2 5.3 1.3 10.5l1.7.1c23.6 1.6 23.6 1.6 30.2 9A30 30 0 0 1 266 153a30 30 0 0 1-8 17 35 35 0 0 1-19 6.1h-6.3l-6.8.2H215l-10.4.1h-3.2c-7.7.2-12.4 1.5-17.8 7a26 26 0 0 0-4 15.3v18.9c.5 6.1 2 11 6.3 15.4a22 22 0 0 0 14.2 4.1h6.5l5.2.1 27.1.2c8.4.2 15.3 1.6 21.4 7.8a27 27 0 0 1 5.9 18A29 29 0 0 1 256 283a41 41 0 0 1-22 4.5h-31.4c-7.7 0-13.4 1.3-19 6.9-3 5-4 9.7-4 15.5v12c-.1 7 0 13.3 4.4 19.1 5.9 5.7 11.4 6.2 19.3 6.4 13.7.5 13.7.5 18.7 4.6 4.2 5 5.1 10.7 5.2 17.1V386l.1 9v11.9c0 9-.7 18.3-6.4 25.6a29 29 0 0 1-22.5 9.1c-10-.2-16-2.3-23.4-9.4-5.3-5.7-6.3-11.4-7.2-19-.7-4.9-1.5-8.5-4.8-12.1-6.2-4.6-12.6-4.6-20-4.5H41a35 35 0 0 1-21.6-6.4A30 30 0 0 1 10 366a30 30 0 0 1 12.9-19.7 23 23 0 0 1 13.4-3.6h12.1l33-.3c16.6 0 16.6 0 22.2-4.7 6-6.2 5.7-15 5.7-23.1v-2.7c0-7-.7-14.4-5.6-19.8-4.8-3.7-9.6-4.4-15.6-4.3H82l-26-.1H39.5c-10 0-17-1-24.9-7.6a30 30 0 0 1-8-22.6c1-7.2 4.9-13.7 10.3-18.5 6-3.8 11.2-5.1 18.3-5.1h14.4l27.1-.2H81c8.5 0 16-.4 23-5.7 5.5-6.7 5.2-14.5 5.2-22.8v-3c0-7.8-.4-14.6-5.6-20.9a20 20 0 0 0-13.9-4.7h-46c-9.5-.1-18.4-1.3-25.6-7.8L15 165l-1.3-1.7c-4-6.3-3.8-14.2-2.7-21.3a25 25 0 0 1 13-16c3.5-1.6 6.3-2.2 10.1-2.3H44l9.5-.1h10l18.9-.2 21.4-.1 44.2-.3a49 49 0 0 0-4.9-8 48 48 0 0 1-7.1-33c2.1-10.4 7.5-20 16-26.6a49 49 0 0 1 46-5.4"/><path fill="#fff" d="M316.9 256.6H377l16.4.1h24.7c1.9.3 1.9.3 3.9 2.3v5c-4.7 2.4-9 2.3-14.1 2.2h-34.3l-16.8-.1-32.8-.1c-1.7 3-2.3 5.2-2.3 8.7V315c.3 2 .3 2 1.7 3.3 2.1 1 4.1 1.2 6.5 1.5 5 1 7 2.1 10.1 6.2a28 28 0 0 1 2.4 13.1l.2 9.7.1 5 .3 12.2h2.4l22.1.3 11.4.1 11 .2h4.2l9.3.1c2.6.3 2.6.3 4.6 2.3v6c-2.7 1.3-4.8 1.1-7.8 1.2h-9.7l-10.7.1h-11l-8.5.1h-4c-14.5.2-14.5.2-20.3-4.4-3.6-4-3.5-8.3-3.5-13.5V356l-.3-20.4c0-5.5 0-5.5-1.2-6.6l-6-.2h-12.6l-18.5-.3h-11.4l-4.3-.1h-6l-3.5-.1c-2.7-.3-2.7-.3-4.7-2.3-.2-2.6-.2-2.6 0-5 1.6-1.6 3.1-1.2 5.3-1.2h5.8l3.1-.1 13.1-.3 9.6-.1h3l2.8-.1h2.4c1.9-.2 1.9-.2 2.9-1.2a97 97 0 0 0 .2-8.9v-7.7l.4-26.5V271l.1-8.4c.4-3.2.8-5.3 4.2-6"/><path fill="#fff" d="M352.7 146.9H373l11-.1h21.5c2.5.2 2.5.2 4.5 2.2-.2 2.6-.2 2.6-1 5-2.5 1.2-4.1 1.2-6.9 1.2h-6.4l-5.2.2-11 .1-9 .2h-6.7l-3 .1H358c-2 .2-2 .2-3 1.2l-.2 5.5v11.4l-.2 16.8-.1 10.3v9.4l-.1 3.1c-.4 2.5-.4 2.5-1.7 3.6-2 1-3 1.2-5.2 1.2H315l-15 .1h-25l-2.3.1c-3.8 0-5.3 0-8.3-2.5l-1.5-2 1-3c3-1.5 6-1.2 9.4-1.2h2.3l7.6-.1h5.2l55.5-.7c1.3-2.6 1.2-4.7 1.2-7.6v-1.8l.1-9.6.2-14.7.2-12.4V157l.1-3.6v-3.2c.3-4.5 3-3.4 6.9-3.4"/><path fill="#fff" d="M312.8 67.8h9.1c5.8 0 5.8 0 8.1 1.2 1.4 6.6 2.8 16-1 22-3.3 1.2-6.5 1.2-10 1.2h-3.1c-3-.2-4.4-.8-6.9-2.2l-.1-9.9v-5.5l-.1-2.5c.3-2.8 1.2-4 4-4.3"/><path fill="#fff" d="M441 358c2.8 1.8 4.5 3 6 6 .4 4.4.6 6.1-1.9 9.9-2.5 2.5-3.4 3-7 3.4-4-.4-6.4-1.7-9.4-4.6q-1.7-4.3-.7-8.7c3.5-5.3 6.7-7 13-6"/><path fill="#fff" d="M441 134c3 1 4.4 2.2 6 5 .8 4.3.5 7.2-1.9 11-2.5 2.3-3.4 3-6.9 3.4-4.2-.5-6.3-2.3-9.2-5.4-1.4-2.8-1.3-4.8-1-8 3.7-5.5 6.5-6.6 13-6"/><path fill="#fff" d="M455.3 250.8c2.1 1.5 2.7 2.8 3.7 5.2.3 3.7.2 7.5-2.2 10.5a11 11 0 0 1-8.4 2.5c-3.4-.7-5.2-2.2-7.4-5-1.4-2.9-1.3-4.8-1-8 4-6 8.5-7.5 15.3-5.2"/></svg>